<?xml version="1.0" encoding="utf-8"?>
<svg xmlns="http://www.w3.org/2000/svg" width="17" height="16" viewBox="0 0 17 16" fill="none">
<path fill-rule="evenodd" clip-rule="evenodd" d="M5.88334 3.33334H5C3.61929 3.33334 2.5 4.45263 2.5 5.83334V11.5C2.5 12.7095 3.35888 13.7184 4.5 13.95V14.1667C4.5 14.4428 4.72386 14.6667 5 14.6667C5.27614 14.6667 5.5 14.4428 5.5 14.1667V14H11.5V14.1667C11.5 14.4428 11.7239 14.6667 12 14.6667C12.2761 14.6667 12.5 14.4428 12.5 14.1667V13.95C13.6411 13.7184 14.5 12.7095 14.5 11.5V5.83334C14.5 4.45263 13.3807 3.33334 12 3.33334H11.1167C10.885 2.19222 9.87615 1.33334 8.66667 1.33334H8.33333C7.12385 1.33334 6.11498 2.19222 5.88334 3.33334ZM6.91869 3.33334H10.0813C9.8754 2.75075 9.31978 2.33334 8.66667 2.33334H8.33333C7.68022 2.33334 7.1246 2.75075 6.91869 3.33334ZM6.33333 6.00001C6.60948 6.00001 6.83333 6.22387 6.83333 6.50001V10.8333C6.83333 11.1095 6.60948 11.3333 6.33333 11.3333C6.05719 11.3333 5.83333 11.1095 5.83333 10.8333V6.50001C5.83333 6.22387 6.05719 6.00001 6.33333 6.00001ZM10.6667 6.00001C10.9428 6.00001 11.1667 6.22387 11.1667 6.50001V10.8333C11.1667 11.1095 10.9428 11.3333 10.6667 11.3333C10.3905 11.3333 10.1667 11.1095 10.1667 10.8333V6.50001C10.1667 6.22387 10.3905 6.00001 10.6667 6.00001Z" fill="#242424"/>
</svg>