<svg class="fill-primary-300" width="24" height="24" viewBox="0 0 320 320" fill="none" xmlns="http://www.w3.org/2000/svg"><path fill-rule="evenodd" clip-rule="evenodd" d="M160 320C248.365 320 320 248.365 320 160C320 71.6347 248.365 -9.53674e-06 160 -9.53674e-06C71.6347 -9.53674e-06 0 71.6347 0 160C0 248.365 71.6347 320 160 320ZM136 160.001L181.333 160C194.588 160 205.333 149.255 205.333 136C205.333 122.745 194.588 112.001 181.333 112.001H136V160.001ZM104 80H181.333C212.261 80 237.333 105.072 237.333 136C237.333 166.928 212.261 192.001 181.333 192.001H136V240H104V80Z" fill="#A3A3A3"/></svg>